<svg xmlns="http://www.w3.org/2000/svg" width="1280" height="720"><g filter="url(#a)"><path fill="#FF6800" d="M-640-360h2560v1440H-640z"/><path d="m-160-235-55 934 472 .6L777-4"/><path d="M436-140 185 454l437 398.6L1087-122"/><path d="m611 207-56 129 860 799.6 55-433.6"/><path d="m177 285-393 112 166 817.6L646 737" fill="#155dfc"/><path d="m828 535-652 900 65 12.6 941-59.6"/><path d="M816 507 530 650l506 564.6L1266 537" fill="#155dfc"/></g><path fill="#fff" filter="url(#b)" d="M0 0h1280v720H0z"/><defs><filter id="b" x="-512" y="-288" width="1792" height="1008" filterUnits="userSpaceOnUse" primitiveUnits="userSpaceOnUse" color-interpolation-filters="linearRGB"><feTurbulence type="fractalNoise" baseFrequency=".2" numOctaves="4" seed="15" stitchTiles="no-stitch" x="0" y="0" width="1280" height="720" result="turbulence"/><feSpecularLighting surfaceScale="10" specularConstant="1.21" specularExponent="20" lighting-color="#fff" x="0" y="0" width="1280" height="720" in="turbulence" result="specularLighting"><feDistantLight azimuth="3" elevation="100"/></feSpecularLighting></filter><filter id="a" x="-129.28" y="-129.28" width="1538.56" height="978.56" filterUnits="userSpaceOnUse" color-interpolation-filters="sRGB"><feFlood flood-opacity="0" result="BackgroundImageFix"/><feBlend in="SourceGraphic" in2="BackgroundImageFix" result="shape"/><feGaussianBlur stdDeviation="129.28" result="effect1_foregroundBlur_1_2"/></filter></defs></svg>